# xmcd
#
# Track frame offsets:
#	150
#	25813
#	48056
#	73424
#	111778
#	127821
#	161869
#	183227
#	214667
#	231949
#
# Disc length: 3319 seconds
#
# Revision: 0
# Processed by: cddbd v1.5.1PL0 Copyright (c) Steve Scherf et al.
# Submitted via: dBpowerAMP V4.0
#
DISCID=860cf50a
DTITLE=Dribble Blues - Le Deuze
DYEAR=1900
DGENRE=Blues
TTITLE0=the one
TTITLE1=the two
TTITLE2=the three
TTITLE3=the four
TTITLE4=the five
TTITLE5=the six
TTITLE6=the seven
TTITLE7=the height
TTITLE8=the nine
TTITLE9=the teen
EXTD=The Baveux of the blues\n
EXTT0=
EXTT1=
EXTT2=
EXTT3=
EXTT4=
EXTT5=
EXTT6=
EXTT7=
EXTT8=
EXTT9=
PLAYORDER=
